<?xml version="1.0" encoding="UTF-8"?>
<svg id="Layer_2" data-name="Layer 2" xmlns="http://www.w3.org/2000/svg" viewBox="0 0 17.83 22.64">
  <defs>
    <style>
      .cls-1 {
        fill: #3d1f0d;
      }
    </style>
  </defs>
  <g id="Layer_1-2" data-name="Layer 1">
    <g id="_6Aszwu.tif" data-name="6Aszwu.tif">
      <g>
        <path class="cls-1" d="M15.04,19.62c-1.1,1.32-2.39,2.32-4.01,2.72-.17.04-.53-.16-.63-.3-.12-.18-.17-.53-.1-.79.9-3.46.64-6.92-.64-10.24s-1.35-6.83-.3-10.18c.08-.25.37-.85.68-.83,2.08.14,3.85,1.24,5.18,2.83,3.57,4.27,3.47,12.44-.18,16.8Z"/>
        <path class="cls-1" d="M7.45,22.63c-2.73-.46-4.84-2.26-6.05-4.67C-1.38,12.4-.16,2.95,6.39.37c.23-.09.69-.07.87.03.21.11.36.61.28.91-.85,3.41-.69,6.89.58,10.21,1.3,3.4,1.44,6.99.28,10.46-.12.37-.41.74-.96.65Z"/>
      </g>
    </g>
  </g>
</svg>