<?xml version="1.0" encoding="UTF-8"?>
<svg id="Layer_1" data-name="Layer 1" xmlns="http://www.w3.org/2000/svg" viewBox="0 0 439 654">
  <defs>
    <style>
      .cls-1 {
        fill: #29abe2;
      }
    </style>
  </defs>
  <g>
    <g>
      <path d="M433.81,588.7l-37.61-86.19c1.63-1.5,2.74-3.37,3.23-5.87.88-4.49-1.29-8.25-3.8-12.62-2.41-4.18-5.29-9.22-6.36-16.4,1.44-.84,2.38-2.31,2.54-3.98.13-1.45.2-2.63.2-3.49,0-1.87-.76-3.04-1.38-3.71-.36-.37-.8-.65-1.27-.84,1.34-8.36,5.06-15.5,7.96-21.05,2.06-3.94,3.55-6.79,3.63-9,.13-3.46-.99-5.54-2.1-6.76l29.09-49.69c.77-1.3.74-2.9-.07-4.17-.69-1.09-1.84-1.76-3.1-1.84l5.46-9.48c.55-.87.58-1.96.08-2.86-.04-.07-.1-.12-.14-.19-.13-.45-.48-.84-.96-1.01-3.61-1.24-12.2-2.48-15.64-1.79-4.69-1.02-8.84-1.4-13.01-1.18-4.63-1.53-11.04-1.97-19.06-1.3-8.46-2.29-19.06-2.61-32.38-.98-9.52-1.7-18.62-.79-27.05.46-13.48-1.1-23.69-.43-30.35,1.97-2.45-.67-7.94-.24-12.42.29-7.08.83-13.22,2.15-16.44,3.54-.13.05-.24.13-.34.21-.61.32-1.13.81-1.48,1.44-.63,1.15-.59,2.5.09,3.58l4.4,7.38c-.23-.02-.47-.05-.7-.07-1.5-.15-2.92.56-3.73,1.82-.81,1.27-.84,2.87-.08,4.18l28.96,49.46c-1.18,1.17-2.46,3.31-2.32,6.99.09,2.21,1.57,5.06,3.64,9,2.9,5.55,6.61,12.7,7.95,21.05-.48.19-.91.47-1.27.84-.63.67-1.39,1.83-1.39,3.71,0,.86.07,2.04.2,3.49.16,1.67,1.1,3.14,2.55,3.98-1.07,7.18-3.96,12.22-6.36,16.4-2.51,4.36-4.68,8.13-3.81,12.62.52,2.63,1.72,4.58,3.51,6.11l-37.51,85.94c-5.06,11.6-4.16,24.59,2.47,35.63,5.32,8.85,13.75,15.27,23.43,18.15.12.16.27.29.45.39l4.46,2.53c7.61,4.32,16.26,6.6,25.01,6.6h66.66c8.75,0,17.4-2.28,25.01-6.6l4.77-2.71c.11-.06.2-.14.29-.22,9.76-2.93,18.28-9.48,23.65-18.49,6.55-10.99,7.45-23.85,2.45-35.29ZM421.08,363.42c-3.26.32-6.75.69-10.38,1.07-13.1,1.38-29.28,3.09-46.71,3.89l2.15-10.77c8.38.74,23.06,1.47,30.88-1.35l-2.9,6.52c-.34.76,0,1.66.77,2,.2.09.41.13.61.13.58,0,1.13-.33,1.38-.9l3.72-8.36c3.35.42,7.54.54,10.47-.17l-2.12,4.42c-.36.75-.05,1.66.71,2.02.21.1.43.15.65.15.56,0,1.1-.32,1.36-.86l3.22-6.7c4.27.22,8.32-.37,12.38-1.84l-6.2,10.75ZM307.41,367.28l-2.61-9.82c7.51,1.71,14.73,1.54,21.48-.54.02,0,.05,0,.07-.01l1.19,8.94c.1.76.75,1.31,1.5,1.31.07,0,.13,0,.2-.01.83-.11,1.41-.87,1.3-1.7l-1.09-8.23c7.45,2.81,25.52,3.25,33.53.81l-2.11,10.57c-1.53.21-3.01.7-4.33,1.48-2.59,1.52-7.22,2.47-12.07,2.47s-9.48-.95-12.07-2.47c-1.64-.96-3.5-1.51-5.41-1.59-6.73-.28-13.29-.7-19.56-1.19ZM413.23,350.82c.25.06.5.05.74-.02,1.27-.36,4.48-.17,7.67.27-2.17.4-4.37.54-6.62.42-1.26-.06-2.49.17-3.59.7-1.76.84-6.09,1.03-10.51.46-.35-.04-.7-.06-1.05-.07l1.42-2.96c3.79-.14,7.6.24,11.93,1.2ZM347.49,347.13l-.3,6.6c-.04.83.61,1.54,1.44,1.58.02,0,.05,0,.07,0,.8,0,1.47-.63,1.51-1.44l.3-6.65c11.81-1.36,21.32-1.13,28.98.72l-1.25,4.71c-.21.81.27,1.63,1.07,1.85.13.03.26.05.39.05.67,0,1.28-.45,1.46-1.12l1.36-5.14c6.45-.48,11.72-.22,15.68.81l-2.07,4.29c-5.35,1.99-16.19,2.44-29.95,1.21-1.29-.11-2.52.02-3.66.41-7.11,2.41-25.89,1.97-32.41-.76-1.46-.61-3.14-.68-4.72-.2-.27.08-.54.14-.81.22l-.8-6.66c7.48-1.06,15.46-1.76,23.71-.46ZM290.43,349.54l.76,3.29c.16.7.78,1.17,1.47,1.17.11,0,.23-.01.34-.04.81-.19,1.32-1,1.13-1.81l-.65-2.8c6.05-1.96,15.41-2.51,27.27-1.62l.87,7.23c-5.3,1.03-10.78.86-16.64-.54-1.08-.26-2.18-.27-3.27-.03-7.09,1.55-13.67,1.5-16.75-.13-1.01-.53-2.17-.81-3.46-.83-5.27-.08-9.11-.66-12.52-1.57,7.57-1.78,18.6-2.75,21.46-2.3ZM263.69,354.23c-.15-.24-.07-.45-.02-.55.04-.08.13-.19.29-.25,4.19,1.5,9.25,2.88,17.49,3.01.28,0,.55.03.8.07l2.12,5.63c.23.61.8.98,1.41.98.18,0,.36-.03.53-.1.78-.29,1.18-1.17.88-1.95l-1.22-3.23c5.32,1.44,12.57.26,15.69-.37l2.54,9.55c-9.48-.79-18.27-1.72-25.98-2.53-3.13-.33-6.13-.65-8.98-.93l-5.56-9.32ZM292.9,417.32c-.07-.03-.14-.02-.2-.04l-29.09-49.68c-.27-.47-.08-.87.02-1.02.09-.15.36-.48.9-.44,1.23.12,2.51.24,3.81.37,0,0,0,0,0,0h0c3.03.3,6.23.64,9.57.99,13.65,1.44,30.64,3.24,48.94,3.99,1.41.06,2.79.46,4,1.17,3.07,1.81,8.16,2.88,13.6,2.88s10.53-1.08,13.6-2.88c1.21-.71,2.59-1.12,4-1.18,18.31-.76,35.3-2.55,48.95-4,4.78-.5,9.3-.98,13.39-1.37.53-.05.8.29.89.44.1.15.29.55.02,1.02l-29.05,49.62c-.2,0-.4.02-.59.1-.06.03-6.12,2.47-14.05,3.52-11.03,1.45-26.41,1.88-26.57,1.89-.82.02-1.47.69-1.47,1.51v37.82c-2.48-2.32-5.79-3.75-9.44-3.75s-6.83,1.37-9.28,3.61c.04-.06.08-.12.13-.18v-37.49c0-.83-.64-1.49-1.47-1.51-.15-.01-15.53-.44-26.56-1.89-7.94-1.05-14-3.49-14.06-3.52ZM376.38,469.76c-7.32,2.16-14.99,3.68-18.51,4.17.08-.58.12-1.18.12-1.78,0-1.42-.22-2.8-.62-4.1,3-.36,8.85-1.12,13.32-2.19,11.39-2.71,15.77-6.22,16.92-7.31.23-.22.61-.23.84,0,.27.28.54.77.54,1.61,0,.96-.11,2.28-.19,3.22-.06.71-.47,1.33-1.1,1.67-2.85,1.54-6.22,3.2-11.32,4.71ZM354.93,472.16c0,5.95-4.84,10.78-10.78,10.78s-10.78-4.84-10.78-10.78,4.84-10.78,10.78-10.78,10.78,4.84,10.78,10.78ZM330.41,473.9c-3.65-.54-11.09-2.04-18.21-4.13-5.1-1.5-8.46-3.17-11.32-4.71-.62-.34-1.04-.97-1.1-1.67-.08-.94-.19-2.26-.19-3.22,0-.85.27-1.33.54-1.61.22-.23.6-.22.84,0,1.15,1.09,5.53,4.6,16.92,7.31,4.33,1.03,9.96,1.78,13.04,2.15-.41,1.31-.63,2.7-.63,4.14,0,.59.04,1.18.11,1.74ZM310.98,648.98c-7.28,0-14.48-1.68-20.99-4.88,19.39,1.48,37.76,2.22,55.72,2.22s35.23-.73,52.85-2.18c-6.5,3.17-13.67,4.84-20.92,4.84h-66.66ZM428.76,622.45c-6.34,10.63-17.38,17.58-29.53,18.6-35.72,3-70.52,2.99-109.5,0-12.16-.93-23.19-7.76-29.51-18.27-6.13-10.19-6.96-22.17-2.29-32.86l37.28-85.42c3.21,1.72,7.52,2.81,12.71,3.95,10.58,2.33,25.29,3.63,25.43,3.64.05,0,.09,0,.13,0,.38,0,.75-.14,1.03-.4.31-.28.48-.69.48-1.11v-28.06c2.44,2.16,5.64,3.49,9.16,3.49s6.97-1.43,9.44-3.75v28.32c0,.42.18.83.49,1.11.28.26.64.4,1.02.4.05,0,.09,0,.13,0,.15-.01,14.86-1.31,25.43-3.64,1.32-.29,2.58-.58,3.78-.87l13.64,31.25c-9.15,5.98-30.44,9.97-53.57,9.98-23.23,0-44.49-3.99-53.63-9.99l11.19-25.64c.33-.76-.02-1.66-.78-1.99-.76-.33-1.66.02-1.99.78l-11.69,26.79s-.04.06-.05.09l-1.49,3.44-22.01,50.43c-3.77,8.65-3.07,18.35,1.89,26.63,5.18,8.62,14.23,14.23,24.2,14.99,19.38,1.49,37.7,2.23,55.6,2.23,17.86,0,35.32-.74,52.97-2.22,9.97-.84,19.04-6.56,24.27-15.32,4.91-8.23,5.59-17.82,1.88-26.31l-37.49-85.91c2.42-.7,4.53-1.48,6.28-2.47l37.36,85.6c4.6,10.53,3.77,22.39-2.28,32.53Z"/>
      <path d="M387.53,415.18c.24.14.5.21.76.21.52,0,1.02-.27,1.3-.75l22.07-37.69c.42-.72.18-1.65-.54-2.07-.72-.42-1.65-.18-2.07.54l-22.07,37.69c-.42.72-.18,1.65.54,2.07Z"/>
      <path d="M279.86,375.42c-.42-.72-1.35-.96-2.07-.54-.72.42-.96,1.35-.54,2.07l22.07,37.69c.28.48.79.75,1.3.75.26,0,.52-.07.76-.21.72-.42.96-1.35.54-2.07l-22.07-37.69Z"/>
    </g>
    <path d="M8.33,76.64L44.3,24.42c6.03-8.76,17.48-12.18,27.32-8.21l.26.1,34.13,14.28,5.73-12.26-3.71-1.5c-1.35-.55-2.01-2.09-1.46-3.45s2.09-2.01,3.45-1.46l3.8,1.53c14.62-.48,32.39,2.35,50.97,8.54l.41-1.02c.42-1.05,1.62-1.56,2.67-1.14l.3.12,4.42-17.32c.09-.37.42-.64.8-.64,3.4,0,7.56.85,11.82,2.56,4.25,1.71,7.84,4,10.29,6.36.28.26.33.69.13,1.02l-8.84,15.53.29.12c1.06.43,1.57,1.62,1.14,2.67l-.41,1.02c17.67,8.45,32.43,18.75,42.61,29.24l3.8,1.53c1.35.55,2.01,2.09,1.46,3.45s-2.09,2.01-3.45,1.46l-3.71-1.5-43.74,127.86c7.15,2.75,17.88,5.85,32.18,2.06,12.59-3.35,27.58-27.32,40.8-48.47,13.22-21.14,25.7-41.11,38.37-47.75,12.03-6.31,28.94-4.3,39.9-1.92l7.19,9.2c-6.06-1.86-29.78-8.37-43.81-1.01-10.97,5.75-23.52,25.82-35.65,45.23-15.28,24.43-29.7,47.49-44.99,51.56-16.17,4.3-28.53.73-36.29-2.21l-2.84,8.33c-2.52,7.36-10.7,11.09-17.91,8.18l-106.75-43.1c-7.21-2.91-10.51-11.28-7.21-18.32l2.05-4.39-33.57-25.3C.92,113.86-2.55,92.44,8.33,76.64ZM20.5,119.76l32.37,24.41,50.13-107.16-33.86-14.16-.18-.07c-6.79-2.74-14.68-.38-18.84,5.66L14.16,80.65c-8.72,12.67-5.94,29.85,6.34,39.1Z"/>
  </g>
  <g>
    <path class="cls-1" d="M344.08,249.21c-2.51,2.42-6.32,2.37-8.73-.4-1.53-1.76-2.27-4.4-2.16-7.17.08-2.08.57-3.96,1.25-5.8.53-1.27,1.09-2.42,1.7-3.65,1.17-2.34,2.27-4.67,3.34-7.19.19-.45.65-.45.84,0,1.06,2.49,2.18,4.87,3.37,7.25.62,1.24,1.19,2.41,1.72,3.71.67,1.8,1.13,3.64,1.21,5.68.12,2.99-.77,5.87-2.54,7.57Z"/>
    <path class="cls-1" d="M358.4,298.66c-2.51,2.42-6.32,2.37-8.73-.4-1.53-1.76-2.27-4.4-2.16-7.17.08-2.08.57-3.96,1.25-5.8.53-1.27,1.09-2.42,1.7-3.65,1.17-2.34,2.27-4.67,3.34-7.19.19-.45.65-.45.84,0,1.06,2.49,2.18,4.87,3.37,7.25.62,1.24,1.19,2.41,1.72,3.71.67,1.8,1.13,3.64,1.21,5.68.12,2.99-.77,5.87-2.54,7.57Z"/>
    <path class="cls-1" d="M347.33,138.63c-2.51,2.42-6.32,2.37-8.73-.4-1.53-1.76-2.27-4.4-2.16-7.17.08-2.08.57-3.96,1.25-5.8.53-1.27,1.09-2.42,1.7-3.65,1.17-2.34,2.27-4.67,3.34-7.19.19-.45.65-.45.84,0,1.06,2.49,2.18,4.87,3.37,7.25.62,1.24,1.19,2.41,1.72,3.71.67,1.8,1.13,3.64,1.21,5.68.12,2.99-.77,5.87-2.54,7.57Z"/>
    <path class="cls-1" d="M351.02,344.76c-2.51,2.42-6.32,2.37-8.73-.4-1.53-1.76-2.27-4.4-2.16-7.17.08-2.08.57-3.96,1.25-5.8.53-1.27,1.09-2.42,1.7-3.65,1.17-2.34,2.27-4.67,3.34-7.19.19-.45.65-.45.84,0,1.06,2.49,2.18,4.87,3.37,7.25.62,1.24,1.19,2.41,1.72,3.71.67,1.8,1.13,3.64,1.21,5.68.12,2.99-.77,5.87-2.54,7.57Z"/>
    <path class="cls-1" d="M353.79,195.73c-2.51,2.42-6.32,2.37-8.73-.4-1.53-1.76-2.27-4.4-2.16-7.17.08-2.08.57-3.96,1.25-5.8.53-1.27,1.09-2.42,1.7-3.65,1.17-2.34,2.27-4.67,3.34-7.19.19-.45.65-.45.84,0,1.06,2.49,2.18,4.87,3.37,7.25.62,1.24,1.19,2.41,1.72,3.71.67,1.8,1.13,3.64,1.21,5.68.12,2.99-.77,5.87-2.54,7.57Z"/>
  </g>
</svg>