<?xml version="1.0" encoding="UTF-8"?>
<svg id="Layer_1" data-name="Layer 1" xmlns="http://www.w3.org/2000/svg" viewBox="0 0 32 32">
  <defs>
    <style>
      .cls-1 {
        fill: #3d1f0d;
      }

      .cls-2 {
        fill: #f2e9d0;
      }
    </style>
  </defs>
  <rect class="cls-2" width="32" height="32" rx="5" ry="5"/>
  <g id="_6Aszwu.tif" data-name="6Aszwu.tif">
    <g>
      <path class="cls-1" d="M22.12,24.3c-1.1,1.32-2.39,2.32-4.01,2.72-.17.04-.53-.16-.63-.3-.12-.18-.17-.53-.1-.79.9-3.46.64-6.92-.64-10.24s-1.35-6.83-.3-10.18c.08-.25.37-.85.68-.83,2.08.14,3.85,1.24,5.18,2.83,3.57,4.27,3.47,12.44-.18,16.8Z"/>
      <path class="cls-1" d="M14.53,27.31c-2.73-.46-4.84-2.26-6.05-4.67-2.78-5.56-1.56-15.01,4.99-17.58.23-.09.69-.07.87.03.21.11.36.61.28.91-.85,3.41-.69,6.89.58,10.21,1.3,3.4,1.44,6.99.28,10.46-.12.37-.41.74-.96.65Z"/>
    </g>
  </g>
</svg>